
<svg viewBox="0 0 38 24" xmlns="http://www.w3.org/2000/svg" role="img" width="38" height="24" aria-labelledby="pi-apple_pay"><title id="pi-apple_pay">Apple Pay</title><path fill="#000" d="M35 0H3C1.3 0 0 1.3 0 3v18c0 1.7 1.4 3 3 3h32c1.7 0 3-1.3 3-3V3c0-1.7-1.4-3-3-3z" opacity=".07"></path><path fill="#fff" d="M35 1c1.1 0 2 .9 2 2v18c0 1.1-.9 2-2 2H3c-1.1 0-2-.9-2-2V3c0-1.1.9-2 2-2h32"></path><path fill="#000" d="M18.5 15.5c0 .4.1.8.2 1.2.1.4.3.7.6 1 .3.2.6.4 1 .5.4.2.9.2 1.4.2.5 0 .9-.1 1.2-.2.4-.1.7-.3 1-.5.3-.3.5-.6.7-.9.1-.3.2-.7.3-1h-1.4c0 .2-.1.3-.2.5-.1.1-.3.3-.4.4-.1.1-.3.2-.5.2-.2.1-.4.1-.6.1-.3 0-.5 0-.7-.1-.2-.1-.4-.2-.5-.3-.1-.1-.3-.3-.4-.5-.1-.2-.1-.4-.1-.6 0-.2 0-.4.1-.6.1-.2.2-.3.3-.5.2-.2.3-.3.5-.4.2-.1.4-.1.6-.1.2 0 .4 0 .6.1.2.1.4.1.5.3.2.1.3.3.4.4.1.2.1.3.2.5h1.4c-.1-.4-.2-.7-.3-1-.1-.3-.4-.6-.6-.9-.3-.3-.7-.5-1-.7-.4-.2-.9-.3-1.4-.3-.5 0-1 .1-1.4.2-.4.1-.8.3-1 .6-.3.2-.5.5-.7.9-.2.3-.2.7-.2 1.2zm-5.5-4c.7 0 1.2.1 1.7.3.4.2.8.4 1.1.8.3.3.5.7.6 1.1.1.5.2.9.2 1.4v.1h-5.3c0 .3.1.5.2.8.1.2.3.4.4.5.2.1.4.3.6.3.2.1.5.1.7.1.6 0 1-.1 1.4-.5.2-.2.4-.4.5-.7h1.4c-.2.6-.6 1.1-1.1 1.5-.5.4-1.2.6-2.1.6-.5 0-1-.1-1.4-.3-.4-.2-.8-.4-1.1-.7-.3-.3-.5-.7-.6-1.1-.2-.5-.2-.9-.2-1.4 0-.5.1-1 .2-1.4.1-.4.4-.8.6-1.1.3-.3.7-.5 1.1-.7.4-.2.9-.3 1.5-.3zm3.1 3.2v-.3c0-.3-.1-.5-.2-.7-.1-.2-.2-.4-.4-.5-.2-.1-.3-.3-.5-.3-.2-.1-.4-.1-.7-.1-.3 0-.5 0-.7.1-.2.1-.4.2-.5.3-.1.1-.3.3-.4.5-.1.2-.2.4-.2.7v.3h3.6zm5.4-3.2c.5 0 1 .1 1.3.2.4.1.7.3 1 .6.3.2.4.5.6.8.1.3.2.7.2 1.1 0 .4-.1.8-.2 1.1-.1.3-.3.7-.6.9-.3.2-.6.4-1 .6-.4.1-.8.2-1.3.2h-2.8v4.2h-1.5V7.5h4.3zm-.2 4.2c.3 0 .5 0 .7-.1.2-.1.4-.2.5-.3.1-.1.3-.3.3-.5.1-.2.1-.4.1-.6 0-.2 0-.4-.1-.6-.1-.2-.2-.3-.3-.5-.1-.1-.3-.2-.5-.3-.2-.1-.4-.1-.7-.1h-2.6v3h2.6zM15 14.8c0-.2 0-.4-.1-.6-.1-.1-.2-.3-.3-.4-.2-.1-.3-.2-.6-.3-.3-.1-.6-.1-1-.1l-1.6-.2c-.2 0-.3-.1-.5-.1-.1-.1-.2-.2-.2-.3-.1-.1-.1-.2-.1-.3 0-.2 0-.3.1-.4.1-.1.2-.2.3-.2.1-.1.2-.1.4-.1h.4c.2 0 .5 0 .6.1.2 0 .3.1.4.2.1.1.2.1.2.2.1.1.1.2.1.3h1.4c0-.3-.1-.6-.2-.8-.1-.2-.3-.5-.5-.6-.2-.2-.5-.3-.8-.4-.3-.1-.7-.1-1.1-.1-.4 0-.8 0-1.1.1-.3.1-.6.2-.8.4-.2.2-.4.3-.5.6-.1.2-.2.5-.2.7 0 .3.1.5.2.7.1.2.2.3.4.4.2.1.4.2.6.2.2.1.4.1.6.1l1.3.2c.3 0 .6.1.8.1.1.1.2.1.2.2.1.1.1.2.1.3 0 .2 0 .3-.1.4-.1.1-.2.2-.3.2-.1.1-.3.1-.5.1h-.5c-.3 0-.5 0-.7-.1-.2-.1-.3-.1-.4-.2-.1-.1-.2-.1-.2-.2-.1-.1-.1-.2-.1-.3H9c0 .5.2.9.5 1.2.3.3.8.5 1.5.5h1.2c.3 0 .7-.1 1-.2.3-.1.5-.3.7-.4.2-.2.3-.4.4-.6.1-.2.1-.5.1-.8-.4.1-.4 0-.4-.2z"></path></svg>
