
<svg viewBox="0 0 38 24" xmlns="http://www.w3.org/2000/svg" role="img" width="38" height="24" aria-labelledby="pi-jcb"><title id="pi-jcb">JCB</title><g fill="none" fill-rule="evenodd"><g fill-rule="nonzero"><path d="M35 0H3C1.3 0 0 1.3 0 3v18c0 1.7 1.4 3 3 3h32c1.7 0 3-1.3 3-3V3c0-1.7-1.4-3-3-3z" fill="#000" opacity=".07"></path><path d="M35 1c1.1 0 2 .9 2 2v18c0 1.1-.9 2-2 2H3c-1.1 0-2-.9-2-2V3c0-1.1.9-2 2-2h32" fill="#FFF"></path></g><path d="M11.5 5H15v11.5a2.5 2.5 0 0 1-2.5 2.5H9V7.5A2.5 2.5 0 0 1 11.5 5z" fill="#006EBC"></path><path d="M18.5 5H22v11.5a2.5 2.5 0 0 1-2.5 2.5H16V7.5A2.5 2.5 0 0 1 18.5 5z" fill="#F00036"></path><path d="M25.5 5H29v11.5a2.5 2.5 0 0 1-2.5 2.5H23V7.5A2.5 2.5 0 0 1 25.5 5z" fill="#2AB419"></path><path d="M10.755 14.5c-1.06 0-2.122-.304-2.656-.987l.78-.676c.068 0 1.15.838 1.876.838.58 0 1.023-.236 1.023-.773 0-.27-.17-.505-.686-.753l-.696-.27c-1.19-.46-1.752-1.137-1.752-2.138 0-1.27 1.023-2.16 2.506-2.16.825 0 1.604.22 2.176.743l-.748.676c-.236-.22-.882-.56-1.427-.56-.632 0-1.055.304-1.055.742 0 .354.304.505.732.683l.731.27c1.19.46 1.706 1.137 1.706 2.175 0 1.235-1.043 2.16-2.508 2.16zm8.016-6.715v3.622h-2.43v-3.622h-1.22V10.5h1.22v3.688h2.43V10.5h1.226V7.785h-1.226zm2.777 0v6.903h1.23V7.785h-1.23zm7.328 0v6.903h-1.226v-6.903h1.226z" fill="#FFF" fill-rule="nonzero"></path></g></svg>
